<?xml version="1.0" standalone="no"?>
<!DOCTYPE svg PUBLIC "-//W3C//DTD SVG 20010904//EN"
 "http://www.w3.org/TR/2001/REC-SVG-20010904/DTD/svg10.dtd">
<svg version="1.0" xmlns="http://www.w3.org/2000/svg"
 width="1024.000000pt" height="1024.000000pt" viewBox="0 0 1024.000000 1024.000000"
 preserveAspectRatio="xMidYMid meet">
<metadata>
Created by potrace 1.14, written by Peter Selinger 2001-2017
</metadata>
<g transform="translate(0.000000,1024.000000) scale(0.100000,-0.100000)"
fill="#000000" stroke="none">
<path d="M4325 8400 c-3 -6 -11 -8 -16 -5 -5 4 -9 2 -9 -4 0 -6 -25 -9 -58 -9
-32 1 -64 -2 -70 -6 -7 -4 -12 -2 -12 4 0 6 -5 8 -11 4 -6 -4 -32 -7 -58 -7
-28 -1 -50 -7 -57 -16 -8 -10 -13 -11 -18 -3 -5 9 -15 8 -37 -3 -16 -9 -29
-13 -29 -9 0 4 -7 1 -16 -7 -13 -10 -17 -10 -25 2 -6 9 -9 10 -9 2 0 -7 -12
-16 -27 -19 -16 -4 -34 -12 -42 -18 -12 -9 -13 -8 -7 3 6 9 0 8 -17 -4 -15 -9
-32 -13 -38 -9 -8 4 -9 3 -5 -4 5 -8 0 -12 -13 -12 -12 0 -21 -5 -21 -11 0 -7
-9 -9 -21 -6 -12 3 -22 0 -26 -9 -3 -8 -14 -14 -24 -14 -10 0 -18 -6 -17 -12
2 -7 -5 -12 -14 -10 -10 2 -18 -2 -18 -8 0 -6 -4 -9 -9 -5 -5 3 -12 1 -16 -5
-4 -6 -10 -8 -15 -5 -4 3 -10 -2 -14 -10 -3 -9 -12 -12 -22 -8 -12 4 -15 3
-10 -5 5 -8 0 -12 -13 -12 -12 0 -21 -4 -21 -10 0 -5 -7 -10 -15 -10 -8 0 -15
-5 -15 -12 0 -6 -3 -8 -7 -5 -9 10 -34 -14 -26 -26 3 -6 1 -7 -6 -3 -6 4 -18
2 -26 -4 -8 -7 -15 -9 -15 -4 0 4 -6 0 -13 -11 -9 -11 -19 -15 -27 -10 -7 5
-11 4 -8 -1 3 -5 0 -15 -8 -22 -8 -7 -14 -10 -14 -6 0 4 -12 -6 -26 -22 -15
-16 -23 -22 -18 -14 5 8 -6 4 -23 -10 -17 -14 -28 -28 -26 -32 2 -5 -3 -8 -12
-8 -9 0 -13 -4 -10 -10 3 -5 1 -10 -5 -10 -6 0 -15 -11 -22 -25 -6 -13 -15
-22 -20 -19 -4 3 -11 -3 -15 -13 -4 -10 -22 -33 -40 -50 -19 -18 -32 -33 -29
-33 3 0 -2 -8 -11 -18 -10 -11 -22 -17 -27 -14 -5 3 -6 0 -2 -6 4 -7 -9 -27
-29 -46 -19 -19 -35 -38 -35 -42 0 -4 -8 -13 -17 -21 -11 -9 -12 -12 -3 -7 8
4 4 -4 -10 -17 -13 -13 -28 -23 -32 -22 -4 2 -5 -4 -1 -13 3 -8 -3 -24 -13
-34 -37 -37 -45 -50 -38 -62 4 -6 3 -8 -3 -5 -5 3 -23 -19 -39 -49 -16 -29
-36 -54 -44 -54 -13 0 -13 -1 0 -10 12 -8 12 -10 -2 -15 -9 -4 -20 -20 -23
-36 -4 -16 -10 -29 -15 -29 -5 0 -11 -13 -15 -30 -4 -16 -11 -30 -17 -30 -6 0
-8 -3 -5 -7 4 -3 -1 -15 -10 -26 -10 -11 -13 -17 -6 -13 8 4 8 -2 -2 -20 -8
-15 -11 -32 -8 -38 4 -6 0 -5 -8 1 -13 11 -15 9 -14 -10 1 -12 -7 -42 -18 -66
-10 -24 -21 -58 -24 -75 -3 -17 -9 -32 -14 -34 -5 -2 -4 -12 1 -23 6 -10 7
-19 2 -19 -5 0 -7 -16 -6 -36 3 -32 2 -34 -13 -22 -15 12 -15 11 -5 -9 8 -14
9 -24 2 -28 -7 -4 -7 -13 0 -26 6 -10 7 -19 3 -19 -4 0 -9 -11 -9 -25 -1 -16
2 -23 10 -19 6 3 4 0 -4 -8 -9 -7 -15 -23 -14 -35 1 -13 -2 -23 -6 -23 -10 0
-8 -20 3 -37 4 -6 3 -14 -2 -18 -5 -3 -8 -15 -6 -26 3 -15 0 -19 -11 -15 -12
4 -12 2 -4 -14 6 -11 8 -26 3 -33 -10 -17 -11 -47 -1 -47 5 0 4 -8 -1 -18 -7
-13 -7 -22 1 -30 7 -7 8 -16 2 -24 -11 -15 -11 -38 -1 -55 4 -6 3 -15 -3 -18
-8 -5 -8 -11 0 -20 7 -8 8 -20 4 -27 -11 -18 -12 -48 -2 -48 5 0 4 -8 -1 -18
-7 -13 -7 -22 1 -30 7 -7 8 -16 2 -24 -11 -15 -11 -38 -1 -55 4 -6 3 -15 -3
-18 -8 -5 -8 -11 0 -20 7 -8 8 -20 4 -27 -11 -18 -12 -48 -2 -48 5 0 4 -8 -1
-18 -7 -13 -7 -22 1 -30 7 -7 8 -16 2 -24 -11 -15 -11 -38 -1 -55 4 -6 3 -15
-3 -18 -8 -5 -8 -11 0 -20 7 -8 8 -20 4 -27 -11 -18 -12 -48 -2 -48 5 0 4 -8
-1 -18 -7 -13 -7 -22 1 -30 7 -7 8 -16 2 -24 -11 -15 -11 -38 -1 -55 4 -6 3
-15 -3 -18 -8 -5 -8 -11 0 -20 7 -8 8 -20 4 -27 -11 -18 -12 -48 -2 -48 5 0 4
-8 -1 -18 -7 -13 -7 -22 1 -30 7 -7 8 -16 2 -24 -11 -15 -11 -38 -1 -55 4 -6
3 -15 -3 -18 -8 -5 -8 -11 0 -20 7 -8 8 -20 4 -27 -11 -18 -12 -48 -2 -48 5 0
4 -8 -1 -18 -7 -13 -7 -22 1 -30 7 -7 8 -16 2 -24 -11 -15 -11 -38 -1 -55 4
-6 3 -15 -3 -18 -8 -5 -8 -11 0 -20 7 -8 8 -20 4 -27 -11 -18 -12 -48 -2 -48
5 0 4 -8 -1 -18 -7 -13 -7 -22 1 -30 7 -7 8 -16 2 -24 -11 -15 -11 -38 -1 -55
4 -6 3 -15 -3 -18 -8 -5 -8 -11 0 -20 7 -8 8 -20 4 -27 -11 -18 -12 -48 -2
-48 5 0 4 -8 -1 -18 -7 -13 -7 -22 1 -30 7 -7 8 -16 2 -24 -11 -15 -11 -38 -1
-55 4 -6 3 -15 -3 -18 -8 -5 -8 -11 0 -20 7 -8 8 -20 4 -27 -11 -18 -12 -48
-2 -48 5 0 4 -8 -1 -18 -7 -13 -7 -22 1 -30 7 -7 8 -16 2 -24 -11 -15 -11 -38
-1 -55 4 -6 3 -15 -3 -18 -8 -5 -8 -11 0 -20 7 -8 8 -20 4 -27 -11 -18 -12
-48 -2 -48 5 0 4 -8 -1 -18 -7 -13 -7 -22 1 -30 7 -7 8 -16 2 -24 -11 -15 -11
-38 -1 -55 4 -6 3 -15 -3 -18 -8 -5 -8 -11 0 -20 7 -8 8 -20 4 -27 -11 -18
-12 -48 -2 -48 5 0 4 -8 -1 -18 -7 -13 -7 -22 1 -30 7 -7 8 -16 2 -24 -11 -15
-11 -38 -1 -55 4 -6 3 -15 -3 -18 -8 -5 -8 -11 0 -20 7 -8 8 -20 4 -27 -11
-18 -12 -48 -2 -48 5 0 4 -8 -1 -18 -7 -13 -7 -22 1 -30 7 -7 8 -16 2 -24 -11
-16 -11 -38 0 -57 5 -8 4 -16 -4 -21 -9 -5 -9 -9 -1 -14 6 -4 9 -11 6 -15 -2
-5 2 -17 9 -27 10 -13 11 -24 5 -36 -7 -12 -6 -18 1 -18 7 0 7 -7 -1 -22 -9
-16 -9 -23 0 -26 6 -2 11 -14 11 -26 0 -12 6 -28 13 -35 10 -11 10 -13 0 -7
-15 8 -17 -3 -4 -23 6 -9 6 -22 1 -32 -7 -12 -5 -21 6 -30 8 -7 13 -18 10 -26
-3 -7 -1 -13 5 -13 7 0 7 -6 0 -17 -7 -13 -5 -23 7 -37 13 -15 13 -17 2 -11
-13 8 -13 7 -1 -8 7 -9 10 -17 6 -17 -4 0 -2 -6 4 -13 6 -8 8 -17 4 -20 -3 -4
-1 -7 6 -7 7 0 10 -4 7 -8 -3 -5 1 -21 9 -36 9 -17 10 -24 3 -20 -7 4 -2 -6
10 -23 12 -17 23 -44 24 -61 1 -17 6 -28 10 -26 8 5 11 -5 11 -38 0 -10 4 -15
9 -12 5 3 8 0 7 -7 -1 -8 3 -27 9 -42 7 -16 12 -35 12 -43 0 -8 6 -17 14 -20
8 -3 12 -12 9 -20 -3 -8 1 -24 9 -37 9 -12 16 -26 17 -32 1 -5 9 -14 17 -18 8
-4 14 -14 14 -21 0 -7 12 -26 26 -41 14 -15 26 -36 27 -46 1 -10 4 -16 7 -14
3 1 14 -9 24 -23 12 -15 14 -22 5 -17 -8 4 -4 -2 8 -14 13 -12 23 -26 23 -31
0 -5 7 -6 17 -3 10 4 14 2 10 -4 -9 -14 2 -45 14 -38 5 3 11 -5 15 -19 4 -17
11 -23 22 -19 10 4 13 2 8 -5 -4 -7 -1 -15 8 -18 8 -3 18 -14 21 -25 4 -10 13
-19 21 -19 8 0 13 -4 10 -8 -3 -5 8 -19 25 -31 18 -13 27 -27 22 -34 -4 -7 2
-5 12 3 17 14 18 13 12 -2 -4 -12 -1 -18 9 -18 8 0 13 -4 9 -9 -3 -5 4 -12 15
-16 11 -4 18 -11 15 -16 -4 -5 -1 -9 5 -9 6 0 27 -16 46 -35 19 -20 39 -33 45
-30 5 4 9 -1 9 -10 0 -8 11 -20 25 -25 14 -5 25 -17 25 -27 0 -14 2 -15 9 -5
7 11 9 10 15 -3 3 -9 10 -14 14 -11 5 3 15 -4 22 -15 8 -10 24 -19 35 -19 16
0 17 -2 5 -10 -13 -8 -12 -10 3 -10 9 0 17 -4 17 -10 0 -5 7 -6 17 -3 11 4 14
3 9 -5 -4 -7 -3 -12 2 -12 4 0 18 -9 30 -20 12 -12 22 -18 22 -14 0 3 8 -3 18
-14 9 -12 24 -22 32 -24 8 -2 23 -11 32 -21 9 -10 20 -19 25 -19 22 -2 63 -21
63 -30 0 -5 4 -7 9 -4 4 3 16 -1 27 -8 10 -8 24 -12 31 -9 7 3 19 0 27 -6 7
-6 16 -8 19 -4 4 3 7 1 7 -5 0 -6 6 -9 13 -6 8 3 19 -2 26 -10 7 -8 19 -12 27
-9 8 3 14 -1 14 -8 0 -7 3 -9 7 -6 3 4 12 2 20 -4 10 -9 13 -8 13 2 0 11 2 11
10 -1 5 -8 10 -11 10 -6 0 5 6 4 13 -1 6 -6 19 -11 27 -11 47 -4 62 -9 70 -22
7 -11 10 -11 10 -2 0 10 5 10 21 1 16 -8 20 -8 14 1 -6 9 -3 9 12 2 11 -7 25
-7 35 -1 11 6 19 5 23 -1 5 -8 12 -7 23 2 13 11 15 10 9 -4 -3 -10 -1 -20 5
-24 7 -4 8 -3 4 4 -4 8 4 10 26 7 50 -7 397 -7 408 0 6 3 10 1 10 -6 0 -9 3
-10 11 -2 6 6 25 7 50 3 24 -5 39 -3 39 3 0 5 6 4 14 -2 8 -7 17 -8 20 -3 3 5
23 6 46 2 25 -4 40 -4 40 3 0 5 6 4 14 -2 8 -7 16 -8 19 -4 3 4 59 6 126 3 67
-3 121 -1 121 4 0 5 6 3 14 -3 8 -7 17 -8 19 -4 3 5 33 6 66 3 34 -3 61 -2 61
3 0 5 6 4 14 -2 8 -7 16 -8 19 -4 3 4 59 6 126 3 67 -3 121 -1 121 4 0 5 6 3
14 -3 8 -7 17 -8 20 -3 3 5 23 6 46 2 25 -4 40 -4 40 3 0 6 5 5 13 -1 7 -6 19
-7 26 -3 7 5 28 5 47 1 21 -5 34 -4 34 2 0 7 4 7 13 0 7 -6 18 -8 24 -4 6 4
63 5 127 2 64 -3 116 -1 116 4 0 5 6 3 14 -3 8 -7 17 -8 19 -4 3 5 33 6 66 3
34 -3 61 -2 61 3 0 5 6 4 14 -2 10 -8 16 -9 21 -1 3 6 10 8 14 6 6 -4 57 -6
138 -6 12 0 25 5 29 12 5 7 3 8 -6 3 -9 -5 -11 -4 -6 4 5 7 13 8 19 4 15 -10
38 -10 54 0 6 4 15 3 18 -3 5 -7 11 -8 19 -1 7 6 17 6 26 1 9 -6 19 -3 28 8 7
9 10 11 6 3 -5 -10 -3 -12 7 -5 16 10 31 13 80 16 21 2 35 6 32 11 -2 4 5 7
16 7 12 0 21 5 21 12 0 6 3 8 7 5 3 -4 13 -1 21 6 13 10 14 9 8 -1 -4 -7 9 -3
29 8 20 11 33 15 29 9 -4 -7 3 -5 17 4 13 9 32 17 42 17 9 0 20 7 24 16 4 10
8 12 12 5 5 -7 14 -4 28 8 11 11 24 17 27 14 3 -4 6 -2 6 3 0 6 16 16 35 23
21 7 33 17 29 23 -4 7 -2 8 4 4 7 -4 22 2 34 13 12 12 25 21 30 21 4 0 17 9
28 20 12 12 25 18 30 15 6 -4 10 3 10 15 0 12 4 19 9 15 5 -3 16 2 24 10 9 8
21 15 27 15 6 0 9 4 6 9 -4 5 7 15 24 23 17 7 28 18 25 25 -2 7 3 13 11 13 8
0 12 4 9 10 -3 6 1 7 9 4 9 -4 16 -1 16 6 0 7 16 28 35 47 19 19 35 38 35 43
0 5 11 20 25 34 14 14 25 32 25 41 0 8 7 15 15 15 9 0 18 12 22 30 3 17 12 30
20 30 7 0 16 14 20 30 3 17 13 36 22 43 9 7 18 23 18 35 1 13 9 29 18 36 8 6
18 29 22 51 3 22 13 45 20 50 8 6 16 33 19 60 3 28 9 52 12 55 17 12 28 49 31
94 1 27 9 56 17 63 8 8 12 19 9 24 -4 5 -2 9 2 9 10 0 16 264 7 292 -4 14 -11
17 -32 11 -15 -3 -33 -6 -40 -6 -7 0 -11 -6 -8 -14 4 -10 1 -11 -12 -5 -20 10
-32 10 -50 -2 -8 -5 -18 -4 -24 2 -8 8 -17 8 -30 1 -10 -5 -18 -6 -18 -1 0 10
-30 9 -48 -2 -7 -4 -19 -3 -27 4 -9 8 -15 8 -20 0 -4 -6 -12 -7 -18 -3 -15 10
-38 10 -55 -1 -8 -5 -18 -4 -24 2 -8 8 -17 8 -30 1 -10 -5 -18 -6 -18 -1 0 10
-30 9 -48 -2 -7 -4 -19 -3 -27 4 -9 8 -15 8 -20 0 -4 -6 -12 -7 -18 -3 -15 10
-38 10 -55 -1 -8 -5 -18 -4 -24 2 -8 8 -17 8 -30 1 -10 -5 -18 -6 -18 -1 0 10
-30 9 -48 -2 -7 -4 -19 -3 -27 4 -9 8 -15 8 -20 0 -4 -6 -12 -7 -18 -3 -15 10
-38 10 -55 -1 -8 -5 -18 -4 -24 2 -8 8 -17 8 -30 1 -10 -5 -18 -6 -18 -1 0 10
-30 9 -48 -2 -7 -4 -19 -3 -27 4 -9 8 -15 8 -20 0 -4 -6 -12 -7 -18 -3 -15 10
-38 10 -55 -1 -8 -5 -18 -4 -24 2 -8 8 -17 8 -30 1 -10 -5 -18 -6 -18 -1 0 10
-30 9 -48 -2 -7 -4 -19 -3 -27 4 -9 8 -15 8 -20 0 -4 -6 -12 -7 -18 -3 -15 10
-38 10 -55 -1 -8 -5 -18 -4 -24 2 -8 8 -17 8 -30 1 -13 -7 -18 -6 -18 2 0 9
-3 9 -14 0 -10 -8 -16 -9 -21 -1 -4 7 -12 7 -26 0 -10 -6 -19 -7 -19 -2 0 10
-30 9 -48 -2 -7 -4 -19 -3 -27 4 -9 8 -15 8 -20 0 -4 -6 -12 -7 -18 -3 -11 8
-31 9 -49 3 -20 -6 -34 -5 -45 3 -9 6 -13 6 -13 -2 0 -7 -8 -8 -25 -1 -14 5
-27 6 -30 0 -6 -9 -37 -6 -57 6 -7 4 -8 3 -4 -4 4 -7 3 -12 -3 -12 -5 0 -12 4
-15 8 -6 10 -36 9 -55 -2 -7 -5 -17 -4 -23 2 -8 8 -17 8 -30 1 -10 -5 -18 -6
-18 -1 0 10 -30 9 -48 -2 -7 -4 -19 -3 -27 4 -9 8 -15 8 -20 0 -4 -6 -12 -7
-18 -3 -15 10 -38 10 -55 -1 -8 -5 -18 -4 -24 2 -8 8 -17 8 -30 1 -10 -5 -18
-6 -18 -1 0 10 -30 9 -48 -2 -7 -4 -19 -3 -27 4 -9 8 -15 8 -20 0 -4 -6 -12
-7 -18 -3 -15 10 -38 10 -55 -1 -8 -5 -18 -4 -24 2 -8 8 -17 8 -30 1 -10 -5
-18 -6 -18 -1 0 10 -30 9 -48 -2 -7 -4 -19 -3 -27 4 -9 8 -15 8 -20 0 -4 -6
-12 -7 -18 -3 -15 10 -38 10 -55 -1 -8 -5 -18 -4 -24 2 -8 8 -17 8 -30 1 -12
-6 -18 -6 -18 0 0 7 -9 7 -25 1 -13 -5 -27 -5 -30 -1 -3 5 -21 5 -40 1 -19 -4
-37 -4 -40 0 -3 4 -21 4 -40 0 -19 -4 -37 -5 -40 0 -2 4 -25 4 -50 0 -25 -4
-48 -3 -51 2 -3 4 -14 3 -25 -2 -13 -8 -19 -7 -19 0 0 6 -4 9 -9 5 -5 -3 -12
-1 -16 5 -9 15 -27 12 -20 -2 4 -7 0 -5 -7 4 -10 11 -19 14 -29 7 -19 -12 -32
-11 -24 1 3 6 -2 11 -12 12 -10 0 -22 2 -28 3 -5 2 -14 4 -20 5 -5 1 -13 2
-17 1 -5 0 -8 4 -8 9 0 5 -3 10 -7 9 -18 -3 -53 14 -53 25 0 6 -5 4 -10 -4 -9
-13 -10 -13 -11 0 -1 8 -1 19 0 23 1 5 -2 6 -6 4 -12 -8 -88 39 -85 53 1 6 -2
9 -7 6 -5 -3 -14 1 -21 9 -7 8 -19 15 -26 15 -8 0 -13 3 -13 8 3 20 -2 32 -16
32 -8 0 -15 9 -15 19 0 11 -5 23 -11 26 -6 4 -8 14 -4 23 3 9 3 13 -1 9 -9 -9
-35 13 -29 23 3 5 -4 11 -15 15 -11 3 -21 11 -21 16 -1 5 -2 14 -3 20 0 6 -9
17 -19 24 -10 7 -19 22 -20 34 -1 12 -9 23 -18 26 -9 3 -20 20 -23 38 -10 53
-12 58 -25 66 -8 5 -12 42 -13 114 0 59 -5 107 -9 107 -5 0 -6 7 -3 15 4 8 -1
17 -10 21 -13 5 -16 24 -16 111 0 72 4 108 13 116 46 43 58 51 52 35 -6 -15 9
-18 35 -8 3 1 10 1 15 0 24 -6 102 -5 122 2 13 4 25 3 29 -3 4 -6 11 -6 20 2
11 9 14 9 14 0 0 -9 5 -9 20 -1 14 8 20 8 20 0 0 -8 6 -8 20 0 14 8 20 8 20 0
0 -8 6 -8 20 0 14 8 20 8 20 0 0 -8 6 -8 20 0 14 8 20 8 20 0 0 -8 6 -8 20 0
15 8 20 8 20 -1 0 -8 4 -9 13 0 8 6 17 8 21 4 10 -10 46 -11 46 -1 0 5 9 4 20
-2 14 -8 20 -8 20 0 0 8 6 8 20 0 14 -8 20 -8 20 0 0 8 6 8 20 0 11 -6 20 -7
20 -2 0 10 30 9 48 -2 7 -4 12 -2 12 4 0 7 6 8 18 2 19 -9 54 -8 71 2 6 4 11
2 11 -5 0 -8 4 -9 13 0 10 8 17 7 25 -1 8 -8 12 -9 12 -1 0 12 18 12 38 0 7
-5 12 -3 12 3 0 6 4 9 9 6 5 -4 12 0 14 6 3 8 6 6 6 -5 1 -10 5 -15 11 -12 21
13 54 14 62 2 5 -8 8 -7 8 6 0 9 5 17 11 17 5 0 7 -4 4 -10 -3 -6 -1 -10 4
-10 6 0 11 4 11 9 0 10 39 3 56 -10 6 -5 11 -3 11 6 0 8 -4 12 -9 9 -4 -3 -8
0 -8 5 0 16 16 13 34 -5 9 -8 16 -11 16 -5 0 12 27 10 49 -3 10 -7 12 -5 6 3
-5 9 -2 12 11 9 11 -2 18 -10 16 -17 -1 -7 2 -10 8 -6 6 3 7 11 4 17 -5 8 -1
9 12 4 31 -13 66 -17 60 -8 -2 4 6 8 19 8 13 0 22 -3 19 -7 -2 -4 3 -10 12
-13 8 -3 12 -2 9 4 -7 11 23 9 42 -3 6 -4 14 -3 17 1 6 10 52 10 62 -1 4 -3
15 -2 25 4 13 7 19 6 19 -1 0 -7 6 -8 18 -1 13 7 23 6 30 -1 7 -7 12 -8 12 -2
0 10 57 11 67 1 3 -3 16 -2 29 3 17 7 24 6 24 -3 0 -9 2 -9 8 0 5 8 13 9 22 3
8 -5 21 -5 32 1 12 7 18 6 18 -1 0 -7 7 -7 21 1 16 8 20 8 14 -1 -6 -9 -3 -9
13 -1 14 8 23 8 27 1 5 -8 11 -8 19 -1 7 6 16 8 19 4 10 -10 57 -10 57 0 0 4
9 3 20 -3 14 -8 20 -8 20 0 0 8 6 8 20 0 14 -8 20 -8 20 0 0 8 6 8 20 0 11 -6
20 -7 20 -2 0 10 36 9 46 -1 4 -4 13 -2 21 4 9 9 13 8 13 0 0 -9 5 -9 20 -1
14 8 20 8 20 0 0 -8 6 -8 20 0 15 8 20 8 20 -1 0 -9 3 -9 14 0 10 9 16 9 21 1
5 -8 10 -8 20 0 10 8 15 8 20 0 5 -8 10 -8 20 0 10 8 15 8 20 0 5 -8 10 -8 20
0 7 6 16 7 19 2 6 -10 36 -9 53 1 6 4 15 3 18 -3 5 -8 11 -8 20 0 10 8 15 8
20 0 5 -8 10 -8 20 0 9 8 15 8 20 0 3 -6 11 -7 18 -3 16 10 57 10 57 0 0 -4 8
-3 18 2 13 7 23 6 30 -1 8 -8 12 -8 12 -2 0 14 30 14 30 0 0 -6 6 -4 13 4 7 8
26 17 42 18 48 6 50 6 57 17 4 5 13 10 20 11 24 2 58 16 58 24 0 4 12 7 28 6
15 0 26 5 25 11 -2 7 6 10 16 8 11 -2 22 3 25 12 4 9 9 13 12 10 6 -6 54 40
54 53 0 6 4 9 9 7 10 -3 97 85 93 96 -1 4 3 7 8 7 6 0 10 7 10 15 0 8 4 15 8
15 12 0 32 46 32 73 0 12 8 27 18 33 11 7 19 26 20 49 2 21 11 46 20 54 12 10
19 32 19 60 1 24 6 47 11 50 33 21 38 97 9 131 -12 14 -17 43 -19 110 -1 71
-6 94 -20 110 -11 12 -18 37 -19 70 -2 33 -7 54 -16 57 -7 3 -10 9 -7 14 3 5
1 9 -4 9 -6 0 -15 14 -21 30 -5 17 -15 30 -20 30 -6 0 -11 6 -11 14 0 8 -11
24 -25 37 -13 13 -25 30 -25 37 0 7 -4 11 -8 8 -5 -3 -18 5 -30 17 -40 42 -92
89 -92 82 0 -4 -6 -2 -13 4 -8 6 -16 8 -20 5 -3 -3 -8 4 -12 15 -3 12 -10 19
-15 16 -5 -3 -11 -1 -15 4 -3 6 -12 8 -20 4 -8 -3 -15 0 -15 7 0 6 -5 8 -10 5
-6 -3 -13 1 -16 10 -5 11 -10 13 -19 5 -9 -8 -17 -7 -26 2 -8 8 -23 13 -34 13
-11 0 -29 5 -40 11 -11 6 -63 12 -115 13 -52 2 -98 5 -102 7 -5 3 -8 0 -8 -7
0 -9 -3 -9 -14 0 -8 7 -16 8 -19 4 -3 -4 -50 -6 -106 -3 -56 3 -101 1 -101 -4
0 -5 -6 -3 -14 3 -8 7 -16 8 -19 4 -3 -4 -50 -6 -106 -3 -56 3 -101 1 -101 -4
0 -5 -6 -3 -14 3 -8 7 -16 8 -19 4 -3 -4 -50 -6 -106 -3 -56 3 -101 1 -101 -4
0 -5 -6 -3 -14 3 -8 7 -16 8 -19 4 -3 -4 -42 -6 -86 -3 -45 3 -81 1 -81 -4 0
-5 -6 -4 -13 2 -8 7 -18 7 -27 2 -9 -5 -19 -5 -27 2 -9 7 -13 7 -13 -2 0 -9
-4 -9 -13 -2 -8 7 -18 7 -27 2 -9 -5 -19 -5 -27 2 -9 7 -13 7 -13 -2 0 -9 -4
-9 -13 -2 -8 7 -18 7 -27 2 -9 -5 -19 -5 -27 2 -9 7 -13 7 -13 -2 0 -9 -4 -9
-13 -2 -8 7 -18 7 -27 2 -9 -5 -19 -5 -27 2 -9 7 -13 7 -13 -2 0 -9 -4 -9 -13
-2 -8 7 -18 7 -27 2 -9 -5 -19 -5 -27 2 -9 7 -13 7 -13 -2 0 -9 -4 -9 -13 -2
-8 7 -18 7 -27 2 -9 -5 -19 -5 -27 2 -9 7 -13 7 -13 -2 0 -9 -4 -9 -13 -2 -8
7 -18 7 -27 2 -9 -5 -19 -5 -27 2 -9 7 -13 7 -13 -2 0 -9 -4 -9 -13 -2 -7 6
-18 8 -24 4 -6 -4 -45 -5 -87 -2 -42 3 -76 1 -76 -4 0 -5 -6 -3 -14 3 -8 7
-16 8 -19 4 -3 -4 -50 -6 -106 -3 -56 3 -101 1 -101 -4 0 -5 -6 -3 -14 3 -8 7
-16 8 -19 4 -3 -4 -50 -6 -106 -3 -56 3 -101 1 -101 -4 0 -5 -6 -3 -14 3 -10
8 -16 9 -21 1 -3 -6 -10 -8 -14 -6 -6 4 -126 7 -214 5 -10 0 -15 -5 -11 -11 5
-7 2 -9 -8 -5 -9 3 -19 3 -22 -1 -14 -13 -46 -8 -51 9 -4 12 -12 16 -22 12
-10 -4 -14 -2 -9 5 3 6 2 13 -4 17 -6 4 -8 11 -5 16 4 5 -1 9 -9 9 -24 0 -24
264 0 287 8 9 13 22 10 29 -3 8 -2 14 2 14 4 0 8 45 9 100 1 76 6 104 17 116
9 8 19 27 22 41 4 14 15 34 25 44 11 11 19 26 19 34 0 8 5 15 10 15 6 0 10 7
10 16 0 8 5 12 10 9 6 -3 10 3 10 14 0 12 6 21 14 21 8 0 18 9 21 20 3 11 12
20 20 20 8 0 17 9 20 20 3 11 11 20 16 20 6 0 21 11 34 25 14 13 25 22 25 19
0 -3 12 8 26 23 14 15 29 27 32 27 15 -3 52 16 52 26 0 6 4 9 9 5 5 -3 12 -1
16 4 3 6 12 8 20 5 8 -4 18 1 21 10 3 9 10 14 14 11 5 -3 14 0 22 7 7 7 22 13
33 13 11 0 26 6 34 13 8 7 17 10 20 5 7 -10 37 -10 47 0 4 4 13 2 21 -4 10 -9
13 -8 13 1 0 7 7 10 15 6 8 -3 15 -1 15 4 0 5 13 5 30 0 19 -6 28 -5 24 1 -3
6 9 8 30 6 21 -3 36 0 36 6 0 6 6 3 13 -8 10 -12 16 -15 21 -6 5 8 13 8 26 1
11 -6 21 -6 24 -1 7 10 25 9 41 -1 6 -4 17 -3 25 2 8 5 21 5 30 0 17 -9 94 -5
112 6 7 4 8 2 4 -4 -4 -7 -2 -12 3 -12 6 0 11 4 11 9 0 9 43 7 59 -4 6 -3 11
2 12 12 0 16 1 16 8 -2 8 -19 8 -19 19 0 6 11 12 15 12 9 0 -7 9 -14 20 -17
11 -3 18 -1 14 4 -3 5 4 9 16 9 14 0 19 -4 15 -12 -4 -7 1 -4 9 6 9 11 16 16
16 10 0 -11 170 -11 188 0 7 4 12 3 12 -1 0 -5 9 -9 20 -10 11 -1 18 2 15 8
-4 5 3 6 17 0 13 -5 33 -5 46 0 12 5 22 5 22 1 0 -4 21 -6 48 -5 57 4 56 4
115 0 26 -2 47 -1 47 3 0 4 7 7 15 7 12 0 12 -3 2 -15 -10 -13 -9 -14 8 -5 11
6 37 9 58 7 24 -2 37 1 37 9 0 8 3 8 9 -1 4 -8 12 -14 17 -15 5 -1 8 -6 6 -12
-2 -5 5 -2 15 8 15 13 22 14 33 4 10 -9 11 -9 6 1 -4 6 -3 12 1 12 5 0 15 -6
22 -12 11 -10 13 -10 7 0 -4 6 -3 12 1 12 5 0 15 -6 22 -12 11 -11 12 -10 7 0
-6 9 0 11 20 8 15 -3 35 0 43 7 10 8 12 8 8 1 -4 -7 3 -14 18 -17 14 -2 28 0
32 6 4 6 1 7 -7 2 -9 -5 -11 -4 -6 4 5 8 12 9 19 2 7 -5 15 -10 20 -10 4 -1 8
-1 10 -2 21 -6 38 -5 44 3 4 7 1 8 -7 3 -9 -5 -11 -4 -6 4 6 9 11 9 22 0 8 -6
14 -8 14 -4 0 4 6 2 14 -4 11 -9 16 -9 22 0 5 8 3 9 -6 4 -9 -5 -11 -4 -6 4 6
8 12 9 20 2 7 -6 45 -9 84 -8 39 2 69 0 66 -5 -3 -4 0 -8 5 -8 6 0 11 4 11 10
0 5 7 7 15 4 8 -4 12 -11 9 -18 -3 -6 2 -2 10 8 9 11 16 14 16 7 0 -7 4 -9 10
-6 5 3 52 6 104 7 69 1 99 -2 112 -13 10 -8 15 -9 11 -2 -11 18 16 22 37 4 11
-9 17 -11 13 -5 -7 12 57 13 69 1 4 -3 15 -2 25 4 14 7 19 6 19 -2 0 -8 4 -9
13 0 10 8 17 7 25 -1 9 -9 12 -9 12 1 0 7 5 9 12 5 18 -11 48 -12 48 -2 0 5 9
4 20 -2 14 -8 20 -8 20 0 0 8 6 8 20 0 14 -8 20 -8 20 0 0 8 6 8 20 0 11 -6
20 -7 20 -2 0 10 36 9 46 -1 4 -4 13 -2 20 4 8 7 14 7 19 -1 5 -8 11 -8 21 1
11 9 14 9 14 0 0 -9 5 -9 20 -1 11 6 20 7 20 2 0 -9 53 -8 69 3 6 3 11 1 11
-5 0 -8 6 -8 20 0 15 8 20 8 20 -1 0 -9 3 -9 14 0 9 7 17 8 20 2 7 -10 31 -9
42 2 4 3 15 2 25 -4 13 -7 19 -6 19 1 0 8 6 8 20 0 15 -8 20 -8 20 1 0 8 4 8
15 -1 12 -10 15 -10 15 0 0 7 6 10 14 7 11 -4 14 20 13 136 0 130 -6 173 -28
187 -4 3 -9 40 -10 83 -1 42 -6 77 -10 77 -5 0 -9 9 -9 20 0 11 -4 20 -10 20
-5 0 -10 11 -10 25 0 14 -9 34 -20 45 -10 10 -21 31 -23 46 -2 15 -11 32 -20
39 -9 6 -18 26 -19 43 -1 18 -6 32 -11 32 -4 0 -6 4 -2 9 3 6 -1 14 -10 18 -8
5 -16 22 -17 37 -2 16 -11 34 -20 40 -10 6 -18 19 -18 28 0 10 -9 23 -20 30
-11 7 -20 20 -20 30 0 9 -9 23 -19 30 -11 8 -25 26 -32 41 -7 15 -18 27 -26
27 -7 0 -13 7 -13 16 0 8 -4 13 -9 9 -5 -3 -12 4 -16 15 -3 11 -11 20 -17 20
-6 0 -28 18 -49 40 -22 22 -43 40 -49 40 -5 0 -10 5 -10 10 0 6 -7 10 -16 10
-8 0 -12 5 -9 10 3 6 -1 10 -9 10 -9 0 -16 5 -16 10 0 6 -5 10 -11 10 -7 0
-18 8 -26 18 -9 10 -12 11 -7 2 4 -8 -3 -5 -14 7 -12 12 -31 24 -42 28 -11 4
-18 10 -16 14 3 4 -4 7 -14 8 -19 2 -78 39 -92 58 -4 6 -8 6 -8 1 0 -5 -8 -2
-18 7 -15 13 -21 14 -32 4 -8 -7 -11 -8 -7 -1 6 10 -17 28 -26 21 -2 -1 -16 6
-31 17 -16 10 -25 13 -22 7 5 -8 0 -8 -18 0 -14 7 -23 16 -19 22 3 6 -1 6 -12
-1 -21 -11 -75 3 -75 20 0 7 -4 7 -13 0 -8 -7 -18 -7 -27 -2 -9 5 -20 4 -30
-3 -8 -6 -12 -7 -8 -3 11 13 -12 37 -25 29 -17 -11 -47 -11 -47 -1 0 5 -4 7
-9 3 -5 -3 -13 0 -16 6 -4 5 -13 8 -21 5 -8 -3 -14 -1 -14 3 0 11 -19 9 -37
-2 -7 -5 -13 -4 -13 2 0 9 -7 9 -45 1 -5 -1 -12 -2 -15 0 -24 9 -50 8 -44 -1
5 -8 1 -8 -14 0 -14 8 -23 8 -27 1 -5 -8 -11 -8 -20 0 -9 8 -15 8 -20 0 -4 -6
-12 -7 -24 0 -12 6 -22 5 -29 -2 -8 -8 -12 -8 -12 -1 0 6 -12 8 -27 6 -16 -2
-32 -4 -38 -4 -5 0 -22 2 -37 4 -16 3 -28 0 -28 -7 0 -7 -3 -7 -8 1 -5 7 -13
9 -21 4 -8 -5 -27 -5 -42 -1 -20 6 -29 5 -29 -3 0 -8 -3 -8 -8 -2 -8 12 -32
13 -49 2 -7 -5 -13 -4 -13 0 0 10 -67 10 -76 0 -4 -3 -15 -2 -25 4 -13 6 -19
6 -19 0 0 -7 -9 -7 -25 -1 -17 7 -25 6 -25 -1 0 -8 -4 -8 -12 -1 -7 5 -22 6
-33 2 -11 -4 -27 -5 -35 -1 -19 8 -42 7 -57 -2 -7 -5 -13 -4 -13 2 0 10 -25 9
-36 -1 -3 -4 -17 -3 -30 2 -17 7 -24 6 -24 -3 0 -8 -3 -8 -8 -2 -8 11 -43 12
-60 1 -6 -3 -13 -2 -17 3 -4 7 -15 7 -30 1 -16 -6 -25 -6 -25 1 0 6 -8 6 -21
-2 -15 -8 -19 -8 -15 0 5 8 0 8 -18 1 -17 -6 -26 -6 -26 1 0 6 -7 6 -20 -1
-13 -7 -20 -7 -20 -1 0 7 -8 7 -24 1 -13 -5 -26 -6 -29 -3 -9 9 -67 10 -67 1
0 -5 -9 -4 -20 2 -12 6 -20 7 -20 1 0 -10 -19 -9 -37 2 -6 4 -14 3 -18 -3 -4
-6 -12 -7 -18 -3 -17 10 -47 11 -47 1 0 -5 -5 -6 -12 -2 -16 10 -68 11 -68 1
0 -4 -8 -3 -18 2 -13 7 -23 6 -31 -2 -9 -9 -14 -9 -19 0 -5 8 -13 9 -22 3 -8
-5 -21 -5 -31 1 -10 5 -20 6 -23 1 -4 -6 -61 -8 -61 -2 0 7 -36 6 -41 -1 -3
-5 -13 -5 -25 1 -12 7 -19 7 -19 1 0 -7 -9 -7 -26 -1 -32 13 -37 13 -28 -1 5
-8 1 -8 -14 0 -14 8 -23 8 -27 1 -4 -7 -11 -7 -18 -2 -13 10 -83 9 -93 -1 -4
-3 -15 -2 -25 4 -14 7 -19 6 -19 -2 0 -9 -3 -9 -14 0 -10 9 -16 9 -21 1 -5 -8
-10 -8 -20 0 -9 8 -15 8 -20 0z m-1557 -5605 c-3 -3 -9 2 -12 12 -6 14 -5 15
5 6 7 -7 10 -15 7 -18z"/>
<path d="M5016 6878 c3 -5 10 -6 15 -3 13 9 11 12 -6 12 -8 0 -12 -4 -9 -9z"/>
</g>
</svg>
